# xmcd
#
# Track frame offsets: 
#        150
#        21877
#        47945
#        66302
#        87537
#        110102
#        129317
#        150235
#        172557
#        193750
#        209540
#        221840
#
# Disc length: 3278 seconds
#
# Revision: 20
# Processed by: cddbd v1.5.2PL0 Copyright (c) Steve Scherf et al.
# Submitted via: ExactAudioCopyFreeDBPlugin 1.0
#
DISCID=ac0ccc0c
DTITLE=Joe Cocker - Across From Midnight [Parlophone 7243 8 59326 2 5]
DYEAR=1997
DGENRE=Rock
TTITLE0=Tonight
TTITLE1=Could You Be Loved
TTITLE2=That's All I Need To Know
TTITLE3=N'oubliez Jamais
TTITLE4=What Do I Tell My Heart?
TTITLE5=Wayward Soul
TTITLE6=Loving You Tonight
TTITLE7=Across From Midnight
TTITLE8=What Do You Say?
TTITLE9=The Last One To Know
TTITLE10=That's The Way Her Love Is
TTITLE11=Need Your Love So Bad
EXTD=YEAR: 1997
EXTT0=
EXTT1=
EXTT2=
EXTT3=
EXTT4=
EXTT5=
EXTT6=
EXTT7=
EXTT8=
EXTT9=
EXTT10=
EXTT11=
PLAYORDER=
